<?xml version="1.0" standalone="no"?>
<!DOCTYPE svg PUBLIC "-//W3C//DTD SVG 20010904//EN"
 "http://www.w3.org/TR/2001/REC-SVG-20010904/DTD/svg10.dtd">
<svg version="1.0" xmlns="http://www.w3.org/2000/svg"
 width="16.000000pt" height="16.000000pt" viewBox="0 0 16.000000 16.000000"
 preserveAspectRatio="xMidYMid meet">
<metadata>
Created by potrace 1.11, written by Peter Selinger 2001-2013
</metadata>
<g transform="translate(0.000000,16.000000) scale(0.022857,-0.022857)"
fill="#000000" stroke="none">
<path d="M90 525 c-1 -49 -1 -94 0 -100 2 -18 3 -148 1 -220 0 -38 -1 -83 -1
-98 0 -17 4 -26 10 -22 5 3 10 2 10 -3 0 -6 7 -13 16 -16 8 -3 13 -2 10 3 -3
5 0 11 7 13 20 7 151 2 171 -7 15 -7 17 -5 11 6 -6 11 -5 11 5 2 7 -6 23 -8
39 -4 34 8 193 7 208 -2 20 -12 40 19 38 60 -1 21 2 46 7 56 5 9 5 17 1 17 -4
0 -8 84 -7 187 0 104 -1 195 -3 203 -4 13 -40 15 -263 15 l-258 0 -2 -90z
m288 7 c13 -9 12 -35 -4 -67 -6 -11 -10 -31 -9 -45 2 -38 -12 -59 -38 -56 -37
4 -27 -36 20 -81 51 -50 55 -71 20 -112 -27 -32 -30 -33 -97 -32 -67 1 -71 2
-105 38 -36 40 -45 77 -20 87 8 3 31 30 50 61 39 60 38 60 66 44 15 -7 24 -7
35 2 8 6 14 8 15 3 1 -13 22 38 23 56 1 8 -10 23 -23 32 -22 15 -28 15 -53 2
-15 -8 -28 -19 -28 -25 0 -6 -5 -7 -11 -3 -7 4 -9 -5 -6 -30 6 -41 -8 -57 -40
-45 -19 7 -21 12 -13 38 5 17 6 31 2 31 -4 1 3 9 16 20 13 10 23 21 22 24 -2
29 3 32 43 31 23 0 48 -4 54 -8 9 -5 17 1 25 17 11 26 32 33 56 18z m106 -153
c33 -26 33 -53 0 -84 -34 -31 -43 -31 -77 0 -24 23 -40 74 -19 61 5 -3 19 6
30 19 26 30 32 31 66 4z"/>
<path d="M285 270 c3 -5 1 -10 -5 -10 -6 0 -9 -4 -5 -9 5 -10 -27 -7 -44 3 -4
3 -17 -1 -27 -9 -10 -8 -14 -15 -9 -15 6 0 17 6 24 13 10 10 11 9 6 -5 -8 -22
7 -28 66 -31 52 -2 58 15 20 51 -25 23 -36 29 -26 12z"/>
<path d="M686 266 c6 -15 4 -17 -6 -11 -9 6 -11 4 -5 -4 5 -9 10 -10 18 -2 8
8 7 14 -2 24 -10 10 -11 8 -5 -7z"/>
<path d="M679 88 c-7 -24 -5 -38 7 -38 8 0 14 9 14 20 0 11 -4 20 -10 20 -5 0
-10 -1 -11 -2z"/>
<path d="M304 23 c5 -13 4 -14 -9 -3 -9 7 -18 10 -22 6 -3 -3 -1 -6 6 -6 7 0
10 -4 7 -8 -2 -4 29 -8 70 -9 41 0 74 4 74 9 0 5 6 6 13 1 19 -13 144 -11 144
2 0 7 -6 12 -14 12 -7 0 -13 -5 -13 -11 0 -6 -5 -4 -10 4 -7 11 -10 11 -10 2
0 -8 -5 -10 -12 -5 -20 12 -38 12 -38 1 0 -7 -4 -7 -12 -1 -7 6 -38 10 -68 9
-30 -1 -68 2 -83 6 -24 6 -28 4 -23 -9z"/>
<path d="M655 21 c2 -18 36 -22 42 -5 2 6 -7 14 -20 16 -19 4 -24 1 -22 -11z"/>
<path d="M6 18 c3 -5 10 -6 15 -3 13 9 11 12 -6 12 -8 0 -12 -4 -9 -9z"/>
</g>
</svg>
